<svg xmlns="http://www.w3.org/2000/svg" viewBox="0 0 1200 700" fill="none">
  <!-- Background -->
  <rect width="1200" height="700" fill="#0a0a0f" rx="12"/>
  <rect width="1200" height="44" fill="#12121a" rx="12"/>
  <rect y="32" width="1200" height="12" fill="#12121a"/>
  <circle cx="20" cy="22" r="6" fill="#ff5f57"/>
  <circle cx="40" cy="22" r="6" fill="#febc2e"/>
  <circle cx="60" cy="22" r="6" fill="#28c840"/>
  <rect x="200" y="10" width="400" height="24" rx="12" fill="#1a1a25"/>
  <text x="400" y="27" font-family="system-ui,sans-serif" font-size="11" fill="#555" text-anchor="middle">localhost:3000/analytics</text>

  <!-- Sidebar -->
  <rect x="0" y="44" width="60" height="656" fill="#0d0d14"/>
  <rect x="14" y="62" width="32" height="32" rx="8" fill="#1a1a25"/>
  <text x="30" y="83" font-family="monospace" font-size="12" fill="#555" text-anchor="middle">M</text>
  <rect x="14" y="108" width="32" height="32" rx="8" fill="#1a1a25"/>
  <text x="30" y="129" font-family="monospace" font-size="12" fill="#555" text-anchor="middle">S</text>
  <rect x="14" y="154" width="32" height="32" rx="8" fill="#b347ff20"/>
  <text x="30" y="175" font-family="monospace" font-size="12" fill="#b347ff" text-anchor="middle">P</text>

  <!-- Performance Chart - large -->
  <rect x="80" y="54" width="680" height="300" rx="12" fill="#12121a" stroke="#1a1a28" stroke-width="1"/>
  <text x="110" y="84" font-family="system-ui,sans-serif" font-size="14" fill="#e5e7eb" font-weight="600">Player Performance Over Time</text>
  <text x="110" y="102" font-family="system-ui,sans-serif" font-size="11" fill="#555">Score progression through 28 rounds</text>

  <!-- Legend -->
  <rect x="520" y="72" width="8" height="8" rx="2" fill="#00ff88"/>
  <text x="534" y="80" font-family="system-ui,sans-serif" font-size="10" fill="#999">ShadowStrike</text>
  <rect x="620" y="72" width="8" height="8" rx="2" fill="#00d4ff"/>
  <text x="634" y="80" font-family="system-ui,sans-serif" font-size="10" fill="#999">N1ghtX</text>
  <rect x="700" y="72" width="8" height="8" rx="2" fill="#ff3366"/>
  <text x="714" y="80" font-family="system-ui,sans-serif" font-size="10" fill="#999">R4Z0R</text>

  <!-- Grid -->
  <line x1="130" y1="130" x2="730" y2="130" stroke="#1a1a28" stroke-width="0.5"/>
  <line x1="130" y1="170" x2="730" y2="170" stroke="#1a1a28" stroke-width="0.5"/>
  <line x1="130" y1="210" x2="730" y2="210" stroke="#1a1a28" stroke-width="0.5"/>
  <line x1="130" y1="250" x2="730" y2="250" stroke="#1a1a28" stroke-width="0.5"/>
  <line x1="130" y1="290" x2="730" y2="290" stroke="#1a1a28" stroke-width="0.5"/>
  <line x1="130" y1="330" x2="730" y2="330" stroke="#1a1a28" stroke-width="0.5"/>

  <text x="120" y="134" font-family="monospace" font-size="9" fill="#444" text-anchor="end">30</text>
  <text x="120" y="174" font-family="monospace" font-size="9" fill="#444" text-anchor="end">25</text>
  <text x="120" y="214" font-family="monospace" font-size="9" fill="#444" text-anchor="end">20</text>
  <text x="120" y="254" font-family="monospace" font-size="9" fill="#444" text-anchor="end">15</text>
  <text x="120" y="294" font-family="monospace" font-size="9" fill="#444" text-anchor="end">10</text>
  <text x="120" y="334" font-family="monospace" font-size="9" fill="#444" text-anchor="end">5</text>

  <!-- ShadowStrike line (green) - goes high -->
  <path d="M140,330 L180,310 L220,290 L260,270 L300,250 L340,240 L380,220 L420,200 L460,180 L500,170 L540,160 L580,150 L620,140 L660,132 L700,128" stroke="#00ff88" stroke-width="2" fill="none" stroke-linecap="round" stroke-linejoin="round"/>
  <path d="M140,330 L180,310 L220,290 L260,270 L300,250 L340,240 L380,220 L420,200 L460,180 L500,170 L540,160 L580,150 L620,140 L660,132 L700,128 L700,330 L140,330 Z" fill="#00ff8808"/>

  <!-- N1ghtX line (blue) -->
  <path d="M140,330 L180,320 L220,310 L260,300 L300,280 L340,270 L380,260 L420,250 L460,240 L500,230 L540,225 L580,215 L620,210 L660,200 L700,195" stroke="#00d4ff" stroke-width="2" fill="none" stroke-linecap="round" stroke-linejoin="round"/>

  <!-- R4Z0R line (red) -->
  <path d="M140,330 L180,318 L220,305 L260,295 L300,285 L340,275 L380,260 L420,250 L460,245 L500,235 L540,225 L580,220 L620,215 L660,208 L700,200" stroke="#ff3366" stroke-width="2" fill="none" stroke-linecap="round" stroke-linejoin="round"/>

  <!-- X-axis labels -->
  <text x="140" y="348" font-family="monospace" font-size="8" fill="#444" text-anchor="middle">R1</text>
  <text x="260" y="348" font-family="monospace" font-size="8" fill="#444" text-anchor="middle">R5</text>
  <text x="380" y="348" font-family="monospace" font-size="8" fill="#444" text-anchor="middle">R10</text>
  <text x="500" y="348" font-family="monospace" font-size="8" fill="#444" text-anchor="middle">R15</text>
  <text x="620" y="348" font-family="monospace" font-size="8" fill="#444" text-anchor="middle">R20</text>
  <text x="700" y="348" font-family="monospace" font-size="8" fill="#444" text-anchor="middle">R28</text>

  <!-- Latency Monitor -->
  <rect x="780" y="54" width="400" height="300" rx="12" fill="#12121a" stroke="#1a1a28" stroke-width="1"/>
  <text x="810" y="84" font-family="system-ui,sans-serif" font-size="14" fill="#e5e7eb" font-weight="600">Server Latency</text>
  <text x="810" y="102" font-family="system-ui,sans-serif" font-size="11" fill="#555">Real-time ping monitoring</text>

  <!-- Latency legend -->
  <rect x="990" y="72" width="8" height="8" rx="2" fill="#00ff88"/>
  <text x="1004" y="80" font-family="system-ui,sans-serif" font-size="10" fill="#999">Avg</text>
  <rect x="1040" y="72" width="8" height="8" rx="2" fill="#f59e0b"/>
  <text x="1054" y="80" font-family="system-ui,sans-serif" font-size="10" fill="#999">P95</text>
  <rect x="1090" y="72" width="8" height="8" rx="2" fill="#ff3366"/>
  <text x="1104" y="80" font-family="system-ui,sans-serif" font-size="10" fill="#999">P99</text>

  <!-- Latency grid -->
  <line x1="810" y1="130" x2="1150" y2="130" stroke="#1a1a28" stroke-width="0.5"/>
  <line x1="810" y1="180" x2="1150" y2="180" stroke="#1a1a28" stroke-width="0.5"/>
  <line x1="810" y1="230" x2="1150" y2="230" stroke="#1a1a28" stroke-width="0.5"/>
  <line x1="810" y1="280" x2="1150" y2="280" stroke="#1a1a28" stroke-width="0.5"/>
  <line x1="810" y1="330" x2="1150" y2="330" stroke="#1a1a28" stroke-width="0.5"/>

  <text x="800" y="134" font-family="monospace" font-size="9" fill="#444" text-anchor="end">100</text>
  <text x="800" y="184" font-family="monospace" font-size="9" fill="#444" text-anchor="end">75</text>
  <text x="800" y="234" font-family="monospace" font-size="9" fill="#444" text-anchor="end">50</text>
  <text x="800" y="284" font-family="monospace" font-size="9" fill="#444" text-anchor="end">25</text>
  <text x="800" y="334" font-family="monospace" font-size="9" fill="#444" text-anchor="end">0</text>

  <!-- Avg latency area -->
  <path d="M820,290 L860,285 L900,288 L940,282 L980,278 L1020,280 L1060,276 L1100,274 L1140,272 L1140,330 L820,330 Z" fill="#00ff8810"/>
  <path d="M820,290 L860,285 L900,288 L940,282 L980,278 L1020,280 L1060,276 L1100,274 L1140,272" stroke="#00ff88" stroke-width="1.5" fill="none"/>

  <!-- P95 line -->
  <path d="M820,240 L860,232 L900,238 L940,228 L980,222 L1020,226 L1060,218 L1100,214 L1140,210" stroke="#f59e0b" stroke-width="1.5" fill="none" stroke-dasharray="4,3"/>

  <!-- P99 line -->
  <path d="M820,190 L860,175 L900,185 L940,170 L980,160 L1020,168 L1060,155 L1100,148 L1140,142" stroke="#ff3366" stroke-width="1.5" fill="none" stroke-dasharray="2,3"/>

  <!-- Current values -->
  <rect x="820" y="140" width="80" height="28" rx="6" fill="#00ff8810" stroke="#00ff8840" stroke-width="1"/>
  <text x="860" y="158" font-family="monospace" font-size="11" fill="#00ff88" text-anchor="middle">22ms avg</text>

  <rect x="920" y="140" width="80" height="28" rx="6" fill="#f59e0b10" stroke="#f59e0b40" stroke-width="1"/>
  <text x="960" y="158" font-family="monospace" font-size="11" fill="#f59e0b" text-anchor="middle">48ms p95</text>

  <rect x="1020" y="140" width="80" height="28" rx="6" fill="#ff336610" stroke="#ff336640" stroke-width="1"/>
  <text x="1060" y="158" font-family="monospace" font-size="11" fill="#ff3366" text-anchor="middle">78ms p99</text>

  <!-- Weapon Usage Bar Chart -->
  <rect x="80" y="370" width="540" height="310" rx="12" fill="#12121a" stroke="#1a1a28" stroke-width="1"/>
  <text x="110" y="400" font-family="system-ui,sans-serif" font-size="14" fill="#e5e7eb" font-weight="600">Loadout Usage</text>
  <text x="110" y="418" font-family="system-ui,sans-serif" font-size="11" fill="#555">Weapon pick rate across all rounds</text>

  <!-- Horizontal bars -->
  <text x="200" y="452" font-family="monospace" font-size="11" fill="#999" text-anchor="end">Vandal</text>
  <rect x="210" y="440" width="350" height="18" rx="4" fill="#00ff8830"/>
  <rect x="210" y="440" width="350" height="18" rx="4" fill="#00ff8860"/>
  <text x="570" y="453" font-family="monospace" font-size="10" fill="#00ff88">42%</text>

  <text x="200" y="482" font-family="monospace" font-size="11" fill="#999" text-anchor="end">Phantom</text>
  <rect x="210" y="470" width="270" height="18" rx="4" fill="#00d4ff30"/>
  <rect x="210" y="470" width="270" height="18" rx="4" fill="#00d4ff60"/>
  <text x="490" y="483" font-family="monospace" font-size="10" fill="#00d4ff">32%</text>

  <text x="200" y="512" font-family="monospace" font-size="11" fill="#999" text-anchor="end">Operator</text>
  <rect x="210" y="500" width="125" height="18" rx="4" fill="#b347ff30"/>
  <rect x="210" y="500" width="125" height="18" rx="4" fill="#b347ff60"/>
  <text x="345" y="513" font-family="monospace" font-size="10" fill="#b347ff">15%</text>

  <text x="200" y="542" font-family="monospace" font-size="11" fill="#999" text-anchor="end">Spectre</text>
  <rect x="210" y="530" width="55" height="18" rx="4" fill="#f59e0b30"/>
  <rect x="210" y="530" width="55" height="18" rx="4" fill="#f59e0b60"/>
  <text x="275" y="543" font-family="monospace" font-size="10" fill="#f59e0b">7%</text>

  <text x="200" y="572" font-family="monospace" font-size="11" fill="#999" text-anchor="end">Sheriff</text>
  <rect x="210" y="560" width="33" height="18" rx="4" fill="#ff336630"/>
  <rect x="210" y="560" width="33" height="18" rx="4" fill="#ff336660"/>
  <text x="253" y="573" font-family="monospace" font-size="10" fill="#ff3366">4%</text>

  <!-- Anti-Cheat Panel -->
  <rect x="640" y="370" width="540" height="310" rx="12" fill="#12121a" stroke="#1a1a28" stroke-width="1"/>
  <text x="670" y="400" font-family="system-ui,sans-serif" font-size="14" fill="#e5e7eb" font-weight="600">Anti-Cheat Monitor</text>
  <text x="670" y="418" font-family="system-ui,sans-serif" font-size="11" fill="#555">Real-time detection events</text>

  <!-- Status indicator -->
  <rect x="1080" y="388" width="80" height="24" rx="12" fill="#10b98115" stroke="#10b98140" stroke-width="1"/>
  <circle cx="1096" cy="400" r="4" fill="#10b981"/>
  <text x="1124" y="404" font-family="monospace" font-size="10" fill="#10b981" text-anchor="middle">ACTIVE</text>

  <!-- Event 1 -->
  <rect x="660" y="432" width="504" height="48" rx="8" fill="#f59e0b08" stroke="#f59e0b20" stroke-width="1"/>
  <rect x="672" y="444" width="8" height="24" rx="2" fill="#f59e0b"/>
  <text x="694" y="455" font-family="system-ui,sans-serif" font-size="12" fill="#e5e7eb" font-weight="500">Suspicious headshot rate detected</text>
  <text x="694" y="472" font-family="monospace" font-size="10" fill="#555">Player: R4Z0R · 58% HS rate · Round 18 · Severity: MEDIUM</text>
  <text x="1136" y="455" font-family="monospace" font-size="10" fill="#f59e0b" text-anchor="end">3m ago</text>

  <!-- Event 2 -->
  <rect x="660" y="490" width="504" height="48" rx="8" fill="#10b98108" stroke="#10b98120" stroke-width="1"/>
  <rect x="672" y="502" width="8" height="24" rx="2" fill="#10b981"/>
  <text x="694" y="513" font-family="system-ui,sans-serif" font-size="12" fill="#e5e7eb" font-weight="500">Aim pattern analysis complete</text>
  <text x="694" y="530" font-family="monospace" font-size="10" fill="#555">Player: ShadowStrike · Pattern: NORMAL · Confidence: 94%</text>
  <text x="1136" y="513" font-family="monospace" font-size="10" fill="#10b981" text-anchor="end">8m ago</text>

  <!-- Event 3 -->
  <rect x="660" y="548" width="504" height="48" rx="8" fill="#10b98108" stroke="#10b98120" stroke-width="1"/>
  <rect x="672" y="560" width="8" height="24" rx="2" fill="#10b981"/>
  <text x="694" y="571" font-family="system-ui,sans-serif" font-size="12" fill="#e5e7eb" font-weight="500">Movement integrity verified</text>
  <text x="694" y="588" font-family="monospace" font-size="10" fill="#555">All players · No anomalies · Tick rate: 128/s</text>
  <text x="1136" y="571" font-family="monospace" font-size="10" fill="#10b981" text-anchor="end">12m ago</text>

  <!-- Event 4 -->
  <rect x="660" y="606" width="504" height="48" rx="8" fill="#10b98108" stroke="#10b98120" stroke-width="1"/>
  <rect x="672" y="618" width="8" height="24" rx="2" fill="#3b82f6"/>
  <text x="694" y="629" font-family="system-ui,sans-serif" font-size="12" fill="#e5e7eb" font-weight="500">Session started — match monitoring active</text>
  <text x="694" y="646" font-family="monospace" font-size="10" fill="#555">Match ID: MTD-2024-08 · Server: EU-WEST-2 · 8 players</text>
  <text x="1136" y="629" font-family="monospace" font-size="10" fill="#3b82f6" text-anchor="end">42m ago</text>
</svg>