<svg xmlns="http://www.w3.org/2000/svg" viewBox="0 0 1200 700" fill="none">
  <!-- Browser chrome -->
  <rect width="1200" height="700" fill="#0a0a0f" rx="12"/>
  <rect width="1200" height="44" fill="#12121a" rx="12"/>
  <rect y="32" width="1200" height="12" fill="#12121a"/>
  <circle cx="20" cy="22" r="6" fill="#ff5f57"/>
  <circle cx="40" cy="22" r="6" fill="#febc2e"/>
  <circle cx="60" cy="22" r="6" fill="#28c840"/>
  <rect x="200" y="10" width="400" height="24" rx="12" fill="#1a1a25"/>
  <text x="400" y="27" font-family="system-ui,sans-serif" font-size="11" fill="#555" text-anchor="middle">localhost:3000</text>

  <!-- Sidebar -->
  <rect x="0" y="44" width="60" height="656" fill="#0d0d14"/>
  <rect x="14" y="62" width="32" height="32" rx="8" fill="#00ff8820"/>
  <text x="30" y="83" font-family="monospace" font-size="14" fill="#00ff88" text-anchor="middle">M</text>
  <rect x="14" y="108" width="32" height="32" rx="8" fill="#1a1a25"/>
  <text x="30" y="129" font-family="monospace" font-size="12" fill="#555" text-anchor="middle">S</text>
  <rect x="14" y="154" width="32" height="32" rx="8" fill="#1a1a25"/>
  <text x="30" y="175" font-family="monospace" font-size="12" fill="#555" text-anchor="middle">P</text>
  <rect x="14" y="200" width="32" height="32" rx="8" fill="#1a1a25"/>
  <text x="30" y="221" font-family="monospace" font-size="12" fill="#555" text-anchor="middle">A</text>

  <!-- Match header -->
  <rect x="80" y="54" width="1100" height="80" rx="12" fill="#12121a" stroke="#1a1a28" stroke-width="1"/>

  <text x="320" y="80" font-family="system-ui,sans-serif" font-size="14" fill="#00d4ff" text-anchor="end" font-weight="600">TEAM ALPHA</text>
  <text x="320" y="104" font-family="monospace" font-size="10" fill="#555" text-anchor="end">ATTACKERS</text>

  <rect x="370" y="64" width="60" height="50" rx="8" fill="#00ff8815"/>
  <text x="400" y="97" font-family="monospace" font-size="28" fill="#00ff88" text-anchor="middle" font-weight="bold">16</text>

  <text x="448" y="95" font-family="monospace" font-size="16" fill="#333" text-anchor="middle">:</text>

  <rect x="470" y="64" width="60" height="50" rx="8" fill="#ff336615"/>
  <text x="500" y="97" font-family="monospace" font-size="28" fill="#ff3366" text-anchor="middle" font-weight="bold">12</text>

  <text x="580" y="80" font-family="system-ui,sans-serif" font-size="14" fill="#ff3366" font-weight="600">TEAM BRAVO</text>
  <text x="580" y="104" font-family="monospace" font-size="10" fill="#555">DEFENDERS</text>

  <text x="870" y="82" font-family="monospace" font-size="11" fill="#555">MAP: HAVEN</text>
  <text x="870" y="100" font-family="monospace" font-size="11" fill="#555">MODE: COMPETITIVE</text>
  <text x="1050" y="82" font-family="monospace" font-size="11" fill="#555">DURATION: 42:18</text>
  <text x="1050" y="100" font-family="monospace" font-size="11" fill="#555">SERVER: EU-WEST-2</text>

  <!-- Scoreboard -->
  <rect x="80" y="148" width="1100" height="530" rx="12" fill="#12121a" stroke="#1a1a28" stroke-width="1"/>

  <!-- Header row -->
  <rect x="80" y="148" width="1100" height="36" rx="12" fill="#0d0d14"/>
  <rect x="80" y="172" width="1100" height="12" fill="#0d0d14"/>
  <text x="110" y="172" font-family="monospace" font-size="10" fill="#555" font-weight="bold">PLAYER</text>
  <text x="350" y="172" font-family="monospace" font-size="10" fill="#555" font-weight="bold">AGENT</text>
  <text x="460" y="172" font-family="monospace" font-size="10" fill="#555" font-weight="bold">K</text>
  <text x="520" y="172" font-family="monospace" font-size="10" fill="#555" font-weight="bold">D</text>
  <text x="580" y="172" font-family="monospace" font-size="10" fill="#555" font-weight="bold">A</text>
  <text x="640" y="172" font-family="monospace" font-size="10" fill="#555" font-weight="bold">K/D</text>
  <text x="720" y="172" font-family="monospace" font-size="10" fill="#555" font-weight="bold">HS%</text>
  <text x="800" y="172" font-family="monospace" font-size="10" fill="#555" font-weight="bold">ACC</text>
  <text x="880" y="172" font-family="monospace" font-size="10" fill="#555" font-weight="bold">DMG</text>
  <text x="960" y="172" font-family="monospace" font-size="10" fill="#555" font-weight="bold">ECON</text>
  <text x="1050" y="172" font-family="monospace" font-size="10" fill="#555" font-weight="bold">STATUS</text>

  <!-- Team Alpha label -->
  <rect x="96" y="194" width="10" height="220" rx="4" fill="#00d4ff30"/>

  <!-- Player 1 - MVP -->
  <rect x="96" y="196" width="1068" height="50" rx="0" fill="#00ff8808"/>
  <rect x="96" y="196" width="3" height="50" fill="#00ff88"/>
  <circle cx="130" cy="221" r="16" fill="#00d4ff20"/>
  <text x="130" y="225" font-family="system-ui,sans-serif" font-size="10" fill="#00d4ff" text-anchor="middle">SH</text>
  <text x="158" y="216" font-family="system-ui,sans-serif" font-size="13" fill="#e5e7eb" font-weight="600">ShadowStrike</text>
  <rect x="158" y="222" width="32" height="14" rx="3" fill="#00ff8830"/>
  <text x="174" y="233" font-family="monospace" font-size="8" fill="#00ff88" text-anchor="middle">MVP</text>
  <text x="350" y="224" font-family="system-ui,sans-serif" font-size="12" fill="#d1d5db">Jett</text>
  <text x="460" y="224" font-family="monospace" font-size="14" fill="#00ff88" font-weight="bold">32</text>
  <text x="520" y="224" font-family="monospace" font-size="14" fill="#ff3366">8</text>
  <text x="580" y="224" font-family="monospace" font-size="14" fill="#d1d5db">12</text>
  <text x="640" y="224" font-family="monospace" font-size="14" fill="#00ff88">4.00</text>
  <text x="720" y="224" font-family="monospace" font-size="14" fill="#d1d5db">42%</text>
  <text x="800" y="224" font-family="monospace" font-size="14" fill="#d1d5db">28%</text>
  <text x="880" y="224" font-family="monospace" font-size="14" fill="#d1d5db">5,842</text>
  <text x="960" y="224" font-family="monospace" font-size="14" fill="#d1d5db">$48.2k</text>
  <rect x="1040" y="213" width="55" height="20" rx="4" fill="#10b98120"/>
  <text x="1067" y="227" font-family="monospace" font-size="9" fill="#10b981" text-anchor="middle">CLEAN</text>

  <!-- Player 2 -->
  <rect x="96" y="250" width="1068" height="50" rx="0" fill="transparent"/>
  <circle cx="130" cy="275" r="16" fill="#00d4ff20"/>
  <text x="130" y="279" font-family="system-ui,sans-serif" font-size="10" fill="#00d4ff" text-anchor="middle">NX</text>
  <text x="158" y="279" font-family="system-ui,sans-serif" font-size="13" fill="#e5e7eb" font-weight="500">N1ghtX</text>
  <text x="350" y="279" font-family="system-ui,sans-serif" font-size="12" fill="#d1d5db">Omen</text>
  <text x="460" y="279" font-family="monospace" font-size="14" fill="#d1d5db">18</text>
  <text x="520" y="279" font-family="monospace" font-size="14" fill="#d1d5db">14</text>
  <text x="580" y="279" font-family="monospace" font-size="14" fill="#d1d5db">9</text>
  <text x="640" y="279" font-family="monospace" font-size="14" fill="#d1d5db">1.29</text>
  <text x="720" y="279" font-family="monospace" font-size="14" fill="#d1d5db">31%</text>
  <text x="800" y="279" font-family="monospace" font-size="14" fill="#d1d5db">24%</text>
  <text x="880" y="279" font-family="monospace" font-size="14" fill="#d1d5db">3,920</text>
  <text x="960" y="279" font-family="monospace" font-size="14" fill="#d1d5db">$41.8k</text>
  <rect x="1040" y="267" width="55" height="20" rx="4" fill="#10b98120"/>
  <text x="1067" y="281" font-family="monospace" font-size="9" fill="#10b981" text-anchor="middle">CLEAN</text>

  <!-- Player 3 -->
  <rect x="96" y="304" width="1068" height="50" rx="0" fill="#ffffff03"/>
  <circle cx="130" cy="329" r="16" fill="#00d4ff20"/>
  <text x="130" y="333" font-family="system-ui,sans-serif" font-size="10" fill="#00d4ff" text-anchor="middle">VX</text>
  <text x="158" y="333" font-family="system-ui,sans-serif" font-size="13" fill="#e5e7eb" font-weight="500">VortexAim</text>
  <text x="350" y="333" font-family="system-ui,sans-serif" font-size="12" fill="#d1d5db">Sova</text>
  <text x="460" y="333" font-family="monospace" font-size="14" fill="#d1d5db">15</text>
  <text x="520" y="333" font-family="monospace" font-size="14" fill="#d1d5db">12</text>
  <text x="580" y="333" font-family="monospace" font-size="14" fill="#d1d5db">14</text>
  <text x="640" y="333" font-family="monospace" font-size="14" fill="#d1d5db">1.25</text>
  <text x="720" y="333" font-family="monospace" font-size="14" fill="#d1d5db">26%</text>
  <text x="800" y="333" font-family="monospace" font-size="14" fill="#d1d5db">22%</text>
  <text x="880" y="333" font-family="monospace" font-size="14" fill="#d1d5db">3,450</text>
  <text x="960" y="333" font-family="monospace" font-size="14" fill="#d1d5db">$38.5k</text>
  <rect x="1040" y="321" width="55" height="20" rx="4" fill="#10b98120"/>
  <text x="1067" y="335" font-family="monospace" font-size="9" fill="#10b981" text-anchor="middle">CLEAN</text>

  <!-- Player 4 -->
  <rect x="96" y="358" width="1068" height="50" rx="0" fill="transparent"/>
  <circle cx="130" cy="383" r="16" fill="#00d4ff20"/>
  <text x="130" y="387" font-family="system-ui,sans-serif" font-size="10" fill="#00d4ff" text-anchor="middle">ZR</text>
  <text x="158" y="387" font-family="system-ui,sans-serif" font-size="13" fill="#e5e7eb" font-weight="500">ZeroLatency</text>
  <text x="350" y="387" font-family="system-ui,sans-serif" font-size="12" fill="#d1d5db">Sage</text>
  <text x="460" y="387" font-family="monospace" font-size="14" fill="#d1d5db">10</text>
  <text x="520" y="387" font-family="monospace" font-size="14" fill="#d1d5db">10</text>
  <text x="580" y="387" font-family="monospace" font-size="14" fill="#d1d5db">18</text>
  <text x="640" y="387" font-family="monospace" font-size="14" fill="#d1d5db">1.00</text>
  <text x="720" y="387" font-family="monospace" font-size="14" fill="#d1d5db">18%</text>
  <text x="800" y="387" font-family="monospace" font-size="14" fill="#d1d5db">19%</text>
  <text x="880" y="387" font-family="monospace" font-size="14" fill="#d1d5db">2,680</text>
  <text x="960" y="387" font-family="monospace" font-size="14" fill="#d1d5db">$35.2k</text>
  <rect x="1040" y="375" width="55" height="20" rx="4" fill="#10b98120"/>
  <text x="1067" y="389" font-family="monospace" font-size="9" fill="#10b981" text-anchor="middle">CLEAN</text>

  <!-- Divider -->
  <line x1="96" y1="422" x2="1164" y2="422" stroke="#1a1a28" stroke-width="1"/>

  <!-- Team Bravo label -->
  <rect x="96" y="430" width="10" height="220" rx="4" fill="#ff336630"/>

  <!-- Player 5 -->
  <rect x="96" y="430" width="1068" height="50" rx="0" fill="transparent"/>
  <rect x="96" y="430" width="3" height="50" fill="#ff3366"/>
  <circle cx="130" cy="455" r="16" fill="#ff336620"/>
  <text x="130" y="459" font-family="system-ui,sans-serif" font-size="10" fill="#ff3366" text-anchor="middle">RZ</text>
  <text x="158" y="459" font-family="system-ui,sans-serif" font-size="13" fill="#e5e7eb" font-weight="500">R4Z0R</text>
  <text x="350" y="459" font-family="system-ui,sans-serif" font-size="12" fill="#d1d5db">Reyna</text>
  <text x="460" y="459" font-family="monospace" font-size="14" fill="#d1d5db">22</text>
  <text x="520" y="459" font-family="monospace" font-size="14" fill="#d1d5db">16</text>
  <text x="580" y="459" font-family="monospace" font-size="14" fill="#d1d5db">5</text>
  <text x="640" y="459" font-family="monospace" font-size="14" fill="#d1d5db">1.38</text>
  <text x="720" y="459" font-family="monospace" font-size="14" fill="#f59e0b">58%</text>
  <text x="800" y="459" font-family="monospace" font-size="14" fill="#d1d5db">31%</text>
  <text x="880" y="459" font-family="monospace" font-size="14" fill="#d1d5db">4,310</text>
  <text x="960" y="459" font-family="monospace" font-size="14" fill="#d1d5db">$44.1k</text>
  <rect x="1040" y="447" width="55" height="20" rx="4" fill="#f59e0b20"/>
  <text x="1067" y="461" font-family="monospace" font-size="9" fill="#f59e0b" text-anchor="middle">FLAG</text>

  <!-- Player 6 -->
  <rect x="96" y="484" width="1068" height="50" rx="0" fill="#ffffff03"/>
  <circle cx="130" cy="509" r="16" fill="#ff336620"/>
  <text x="130" y="513" font-family="system-ui,sans-serif" font-size="10" fill="#ff3366" text-anchor="middle">BT</text>
  <text x="158" y="513" font-family="system-ui,sans-serif" font-size="13" fill="#e5e7eb" font-weight="500">BlitzKrieg</text>
  <text x="350" y="513" font-family="system-ui,sans-serif" font-size="12" fill="#d1d5db">Killjoy</text>
  <text x="460" y="513" font-family="monospace" font-size="14" fill="#d1d5db">14</text>
  <text x="520" y="513" font-family="monospace" font-size="14" fill="#d1d5db">18</text>
  <text x="580" y="513" font-family="monospace" font-size="14" fill="#d1d5db">7</text>
  <text x="640" y="513" font-family="monospace" font-size="14" fill="#ff3366">0.78</text>
  <text x="720" y="513" font-family="monospace" font-size="14" fill="#d1d5db">22%</text>
  <text x="800" y="513" font-family="monospace" font-size="14" fill="#d1d5db">20%</text>
  <text x="880" y="513" font-family="monospace" font-size="14" fill="#d1d5db">2,890</text>
  <text x="960" y="513" font-family="monospace" font-size="14" fill="#d1d5db">$36.7k</text>
  <rect x="1040" y="501" width="55" height="20" rx="4" fill="#10b98120"/>
  <text x="1067" y="515" font-family="monospace" font-size="9" fill="#10b981" text-anchor="middle">CLEAN</text>

  <!-- Player 7 -->
  <rect x="96" y="538" width="1068" height="50" rx="0" fill="transparent"/>
  <circle cx="130" cy="563" r="16" fill="#ff336620"/>
  <text x="130" y="567" font-family="system-ui,sans-serif" font-size="10" fill="#ff3366" text-anchor="middle">GL</text>
  <text x="158" y="567" font-family="system-ui,sans-serif" font-size="13" fill="#e5e7eb" font-weight="500">GhostL1ne</text>
  <text x="350" y="567" font-family="system-ui,sans-serif" font-size="12" fill="#d1d5db">Cypher</text>
  <text x="460" y="567" font-family="monospace" font-size="14" fill="#d1d5db">11</text>
  <text x="520" y="567" font-family="monospace" font-size="14" fill="#d1d5db">19</text>
  <text x="580" y="567" font-family="monospace" font-size="14" fill="#d1d5db">8</text>
  <text x="640" y="567" font-family="monospace" font-size="14" fill="#ff3366">0.58</text>
  <text x="720" y="567" font-family="monospace" font-size="14" fill="#d1d5db">15%</text>
  <text x="800" y="567" font-family="monospace" font-size="14" fill="#d1d5db">17%</text>
  <text x="880" y="567" font-family="monospace" font-size="14" fill="#d1d5db">2,100</text>
  <text x="960" y="567" font-family="monospace" font-size="14" fill="#d1d5db">$32.4k</text>
  <rect x="1040" y="555" width="55" height="20" rx="4" fill="#10b98120"/>
  <text x="1067" y="569" font-family="monospace" font-size="9" fill="#10b981" text-anchor="middle">CLEAN</text>

  <!-- Player 8 -->
  <rect x="96" y="592" width="1068" height="50" rx="0" fill="#ffffff03"/>
  <circle cx="130" cy="617" r="16" fill="#ff336620"/>
  <text x="130" y="621" font-family="system-ui,sans-serif" font-size="10" fill="#ff3366" text-anchor="middle">DK</text>
  <text x="158" y="621" font-family="system-ui,sans-serif" font-size="13" fill="#e5e7eb" font-weight="500">DarkMatter</text>
  <text x="350" y="621" font-family="system-ui,sans-serif" font-size="12" fill="#d1d5db">Brim</text>
  <text x="460" y="621" font-family="monospace" font-size="14" fill="#d1d5db">9</text>
  <text x="520" y="621" font-family="monospace" font-size="14" fill="#d1d5db">22</text>
  <text x="580" y="621" font-family="monospace" font-size="14" fill="#d1d5db">6</text>
  <text x="640" y="621" font-family="monospace" font-size="14" fill="#ff3366">0.41</text>
  <text x="720" y="621" font-family="monospace" font-size="14" fill="#d1d5db">12%</text>
  <text x="800" y="621" font-family="monospace" font-size="14" fill="#d1d5db">16%</text>
  <text x="880" y="621" font-family="monospace" font-size="14" fill="#d1d5db">1,850</text>
  <text x="960" y="621" font-family="monospace" font-size="14" fill="#d1d5db">$28.9k</text>
  <rect x="1040" y="609" width="55" height="20" rx="4" fill="#10b98120"/>
  <text x="1067" y="623" font-family="monospace" font-size="9" fill="#10b981" text-anchor="middle">CLEAN</text>
</svg>